<svg width="810" height="220" viewBox="0 0 810 220" fill="none" xmlns="http://www.w3.org/2000/svg">
<path d="M19.3974 96.9512H3.8252V171.73H19.3974V96.9512Z" fill="white"/>
<path d="M82.4663 161.817C99.4177 161.817 107.893 156.839 107.893 146.862C107.893 143.797 107.137 141.188 105.647 139.014C104.134 136.862 102.11 134.993 99.529 133.406C96.9707 131.819 94.0342 130.449 90.7418 129.297C87.4494 128.145 83.9568 126.993 80.2862 125.841C76.0372 124.602 72.0329 123.189 68.2288 121.602C64.4248 120.015 61.1546 118.146 58.3516 115.994C55.5708 113.842 53.3685 111.277 51.7445 108.298C50.1428 105.342 49.3419 101.755 49.3419 97.5382C49.3419 88.7995 52.8123 81.9955 59.7086 77.1262C66.6271 72.2352 76.1707 69.7788 88.317 69.7788C95.3467 69.7788 101.731 70.4309 107.471 71.7135C113.21 73.0178 117.437 74.4307 120.107 75.9524L114.923 87.2996C112.565 86.0605 109.095 84.8432 104.468 83.6259C99.8404 82.4303 94.4569 81.8216 88.317 81.8216C85.2025 81.8216 82.2883 82.1042 79.6188 82.6912C76.9493 83.2563 74.6134 84.1259 72.589 85.278C70.5869 86.4301 69.0074 87.8865 67.8284 89.669C66.6494 91.4516 66.071 93.5384 66.071 95.9296C66.071 98.6251 66.6716 100.864 67.8951 102.69C69.1187 104.516 70.8538 106.125 73.0784 107.516C75.303 108.907 77.9058 110.168 80.8646 111.32C83.8233 112.472 87.0934 113.624 90.6528 114.776C95.6804 116.494 100.263 118.233 104.445 119.95C108.628 121.667 112.254 123.754 115.324 126.145C118.394 128.537 120.774 131.406 122.442 134.71C124.111 138.014 124.956 142.014 124.956 146.731C124.956 155.448 121.241 162.165 113.833 166.861C106.403 171.556 95.9474 173.904 82.444 173.904C77.8613 173.904 73.6568 173.643 69.8083 173.121C65.9597 172.599 62.5338 171.969 59.5084 171.252C56.5052 170.534 53.9024 169.773 51.7223 168.947C49.5422 168.121 47.8515 167.426 46.6279 166.861L51.5221 155.339C54.0803 156.578 57.9956 157.97 63.2457 159.513C68.4735 161.056 74.8804 161.817 82.4663 161.817Z" fill="white"/>
<path d="M285.105 173.186C275.495 172.99 268.71 171.23 264.683 167.86C260.656 164.513 258.654 159.274 258.654 152.187V62.4312L274.227 60.127V150.035C274.227 152.231 274.449 154.057 274.894 155.491C275.339 156.926 276.073 158.078 277.074 158.948C278.075 159.817 279.41 160.448 281.078 160.882C282.747 161.317 284.816 161.687 287.285 161.969L285.105 173.186Z" fill="white"/>
<path d="M382.32 169.578C378.738 170.36 374.022 171.165 368.171 172.012C362.321 172.882 355.535 173.295 347.838 173.295C341.142 173.295 335.514 172.447 330.931 170.795C326.349 169.121 322.678 166.752 319.875 163.665C317.094 160.6 315.092 156.97 313.846 152.818C312.623 148.644 312 144.036 312 138.927V96.9512H327.55V136.079C327.55 145.188 329.218 151.709 332.578 155.644C335.937 159.578 341.543 161.535 349.485 161.535C351.153 161.535 352.888 161.491 354.668 161.382C356.448 161.274 358.116 161.165 359.673 161.013C361.23 160.861 362.654 160.73 363.944 160.578C365.212 160.426 366.147 160.252 366.703 160.078V96.9512H382.275V169.578H382.32Z" fill="white"/>
<path d="M432.018 96.9512H464.986V108.168H432.018V142.688C432.018 146.427 432.351 149.514 433.019 151.948C433.686 154.405 434.687 156.318 436.044 157.709C437.379 159.1 439.047 160.078 441.072 160.665C443.074 161.23 445.41 161.535 448.102 161.535C452.796 161.535 456.555 161.078 459.403 160.165C462.25 159.252 464.23 158.6 465.342 158.231L468.346 169.295C466.788 169.969 464.052 170.817 460.159 171.817C456.266 172.817 451.794 173.317 446.767 173.317C440.849 173.317 435.978 172.665 432.129 171.382C428.28 170.099 425.188 168.143 422.83 165.556C420.494 162.969 418.848 159.774 417.892 155.992C416.935 152.209 416.468 147.818 416.468 142.84V76.1045L432.018 73.8003V96.9512Z" fill="white"/>
<path d="M508.677 96.9512H493.104V171.73H508.677V96.9512Z" fill="white"/>
<path d="M650.897 99.1032C654.457 98.3424 659.195 97.5163 665.112 96.6685C671.03 95.799 677.837 95.3643 685.534 95.3643C692.453 95.3643 698.192 96.212 702.775 97.8859C707.335 99.5597 710.984 101.907 713.742 104.929C716.456 107.951 718.392 111.581 719.504 115.798C720.616 120.015 721.172 124.667 721.172 129.754V171.751H705.6V132.623C705.6 128.015 705.244 124.08 704.51 120.819C703.776 117.559 702.575 114.928 700.906 112.907C699.238 110.885 697.013 109.429 694.21 108.516C691.43 107.603 687.959 107.146 683.821 107.146C682.153 107.146 680.418 107.19 678.638 107.298C676.858 107.407 675.145 107.516 673.544 107.668C671.92 107.82 670.474 107.972 669.184 108.168C667.893 108.364 666.981 108.516 666.425 108.603V171.73H650.875V99.1032H650.897Z" fill="white"/>
<path d="M775.541 162.1C781.904 162.1 786.598 161.383 789.668 159.948C792.737 158.513 794.272 156.209 794.272 153.057C794.272 149.796 792.76 147.209 789.756 145.296C786.731 143.384 781.77 141.231 774.874 138.819C771.537 137.666 768.311 136.493 765.241 135.297C762.171 134.101 759.524 132.688 757.3 131.058C755.053 129.428 753.273 127.471 751.938 125.167C750.603 122.863 749.936 120.037 749.936 116.689C749.936 110.059 752.784 104.82 758.456 100.929C764.151 97.0599 771.893 95.1035 781.726 95.1035C784.173 95.1035 786.642 95.2122 789.089 95.4513C791.536 95.6904 793.827 95.973 795.941 96.3208C798.054 96.6686 799.923 97.0165 801.547 97.4077C803.171 97.799 804.417 98.1251 805.306 98.4077L802.459 109.907C800.791 109.146 798.165 108.342 794.584 107.538C791.024 106.733 786.709 106.32 781.703 106.32C777.343 106.32 773.561 107.059 770.336 108.559C767.088 110.037 765.486 112.363 765.486 115.537C765.486 117.168 765.842 118.602 766.576 119.841C767.31 121.08 768.423 122.211 769.913 123.211C771.426 124.211 773.294 125.167 775.519 126.015C777.744 126.863 780.413 127.776 783.55 128.754C787.665 130.102 791.358 131.428 794.584 132.71C797.81 133.993 800.568 135.514 802.882 137.232C805.151 138.949 806.908 141.036 808.154 143.492C809.377 145.927 810 148.927 810 152.47C810 159.383 807.019 164.6 801.035 168.143C795.073 171.686 786.575 173.469 775.519 173.469C767.822 173.469 761.793 172.925 757.433 171.817C753.073 170.708 750.114 169.882 748.579 169.295L751.427 157.796C753.206 158.361 756.054 159.23 759.969 160.383C763.884 161.535 769.068 162.1 775.541 162.1Z" fill="white"/>
<path d="M11.5234 85.9087C5.18332 85.9087 0 80.8655 0 74.6484C0 68.4314 5.16108 63.3882 11.5234 63.3882C17.8858 63.3882 23.0469 68.4314 23.0469 74.6484C23.0469 80.8655 17.8858 85.9087 11.5234 85.9087ZM11.5234 69.1487C8.409 69.1487 5.87295 71.6269 5.87295 74.6702C5.87295 77.7135 8.409 80.1916 11.5234 80.1916C14.6379 80.1916 17.1739 77.7135 17.1739 74.6702C17.1739 71.6269 14.6379 69.1487 11.5234 69.1487Z" fill="white"/>
<path d="M500.869 85.9082C494.529 85.9082 489.346 80.865 489.346 74.648C489.346 68.4309 494.507 63.3877 500.869 63.3877C507.232 63.3877 512.393 68.4309 512.393 74.648C512.393 80.865 507.232 85.9082 500.869 85.9082ZM500.869 69.1483C497.755 69.1483 495.219 71.6264 495.219 74.6697C495.219 77.713 497.755 80.1911 500.869 80.1911C503.984 80.1911 506.52 77.713 506.52 74.6697C506.52 71.6264 503.984 69.1483 500.869 69.1483Z" fill="white"/>
<path d="M11.4783 54.4532C9.85429 54.4532 8.51953 53.1707 8.51953 51.5621V48.6709C8.51953 47.0841 9.85429 45.7798 11.4783 45.7798C13.1022 45.7798 14.437 47.0841 14.437 48.6709V51.5621C14.437 53.149 13.1245 54.4532 11.4783 54.4532Z" fill="white"/>
<path d="M11.4343 39.9977C9.81035 39.9977 8.47559 38.7151 8.47559 37.1065V34.2154C8.47559 32.6285 9.7881 31.3242 11.4343 31.3242C13.0583 31.3242 14.393 32.6285 14.393 34.2154V37.1065C14.4153 38.7151 13.0805 39.9977 11.4343 39.9977Z" fill="white"/>
<path d="M500.802 54.4532C499.179 54.4532 497.844 53.1707 497.844 51.5621V48.6709C497.844 47.0841 499.156 45.7798 500.802 45.7798C502.426 45.7798 503.761 47.0841 503.761 48.6709V51.5621C503.761 53.149 502.449 54.4532 500.802 54.4532Z" fill="white"/>
<path d="M500.78 39.9977C499.156 39.9977 497.821 38.7151 497.821 37.1065V34.2154C497.821 32.6285 499.134 31.3242 500.78 31.3242C502.404 31.3242 503.739 32.6285 503.739 34.2154V37.1065C503.739 38.7151 502.404 39.9977 500.78 39.9977Z" fill="white"/>
<path d="M492.638 33.3463H489.679C488.033 33.3463 486.721 32.042 486.721 30.4551C486.721 28.8682 488.033 27.564 489.679 27.564H492.638C494.262 27.564 495.597 28.8682 495.597 30.4551C495.597 32.042 494.262 33.3463 492.638 33.3463Z" fill="white"/>
<path d="M477.845 33.3463H474.886C473.262 33.3463 471.928 32.042 471.928 30.4551C471.928 28.8682 473.24 27.564 474.886 27.564H477.845C479.469 27.564 480.804 28.8682 480.804 30.4551C480.804 32.042 479.469 33.3463 477.845 33.3463Z" fill="white"/>
<path d="M463.05 33.3463H460.092C458.468 33.3463 457.133 32.042 457.133 30.4551C457.133 28.8682 458.445 27.564 460.092 27.564H463.05C464.696 27.564 466.009 28.8682 466.009 30.4551C466.009 32.042 464.696 33.3463 463.05 33.3463Z" fill="white"/>
<path d="M448.257 33.3463H445.32C443.674 33.3463 442.361 32.042 442.361 30.4551C442.361 28.8682 443.696 27.564 445.32 27.564H448.279C449.903 27.564 451.238 28.8682 451.238 30.4551C451.238 32.042 449.903 33.3463 448.257 33.3463Z" fill="white"/>
<path d="M433.485 33.3463H430.526C428.902 33.3463 427.567 32.042 427.567 30.4551C427.567 28.8682 428.902 27.564 430.526 27.564H433.485C435.109 27.564 436.444 28.8682 436.444 30.4551C436.444 32.042 435.109 33.3463 433.485 33.3463Z" fill="white"/>
<path d="M418.692 33.3463H415.733C414.087 33.3463 412.774 32.042 412.774 30.4551C412.774 28.8682 414.087 27.564 415.733 27.564H418.692C420.316 27.564 421.651 28.8682 421.651 30.4551C421.651 32.042 420.316 33.3463 418.692 33.3463Z" fill="white"/>
<path d="M403.898 33.3463H400.939C399.315 33.3463 397.98 32.042 397.98 30.4551C397.98 28.8682 399.293 27.564 400.939 27.564H403.898C405.522 27.564 406.857 28.8682 406.857 30.4551C406.857 32.042 405.522 33.3463 403.898 33.3463Z" fill="white"/>
<path d="M389.105 33.3463H386.146C384.522 33.3463 383.188 32.042 383.188 30.4551C383.188 28.8682 384.522 27.564 386.146 27.564H389.105C390.729 27.564 392.064 28.8682 392.064 30.4551C392.086 32.042 390.751 33.3463 389.105 33.3463Z" fill="white"/>
<path d="M374.334 33.3463H371.376C369.752 33.3463 368.417 32.042 368.417 30.4551C368.417 28.8682 369.73 27.564 371.376 27.564H374.334C375.958 27.564 377.293 28.8682 377.293 30.4551C377.293 32.042 375.958 33.3463 374.334 33.3463Z" fill="white"/>
<path d="M359.54 33.3463H356.581C354.957 33.3463 353.622 32.042 353.622 30.4551C353.622 28.8682 354.935 27.564 356.581 27.564H359.54C361.163 27.564 362.498 28.8682 362.498 30.4551C362.498 32.042 361.163 33.3463 359.54 33.3463Z" fill="white"/>
<path d="M344.747 33.3463H341.788C340.142 33.3463 338.829 32.042 338.829 30.4551C338.829 28.8682 340.142 27.564 341.788 27.564H344.747C346.37 27.564 347.705 28.8682 347.705 30.4551C347.705 32.042 346.37 33.3463 344.747 33.3463Z" fill="white"/>
<path d="M329.953 33.3463H326.994C325.348 33.3463 324.035 32.042 324.035 30.4551C324.035 28.8682 325.348 27.564 326.994 27.564H329.953C331.577 27.564 332.911 28.8682 332.911 30.4551C332.911 32.042 331.599 33.3463 329.953 33.3463Z" fill="white"/>
<path d="M315.16 33.3463H312.201C310.577 33.3463 309.242 32.042 309.242 30.4551C309.242 28.8682 310.577 27.564 312.201 27.564H315.16C316.784 27.564 318.118 28.8682 318.118 30.4551C318.118 32.042 316.806 33.3463 315.16 33.3463Z" fill="white"/>
<path d="M300.387 33.3463H297.428C295.804 33.3463 294.47 32.042 294.47 30.4551C294.47 28.8682 295.804 27.564 297.428 27.564H300.387C302.011 27.564 303.346 28.8682 303.346 30.4551C303.346 32.042 302.011 33.3463 300.387 33.3463Z" fill="white"/>
<path d="M285.593 33.3463H282.635C281.011 33.3463 279.676 32.042 279.676 30.4551C279.676 28.8682 280.988 27.564 282.635 27.564H285.593C287.217 27.564 288.552 28.8682 288.552 30.4551C288.552 32.042 287.217 33.3463 285.593 33.3463Z" fill="white"/>
<path d="M270.8 33.3463H267.842C266.218 33.3463 264.883 32.042 264.883 30.4551C264.883 28.8682 266.195 27.564 267.842 27.564H270.8C272.446 27.564 273.759 28.8682 273.759 30.4551C273.759 32.042 272.446 33.3463 270.8 33.3463Z" fill="white"/>
<path d="M256.006 33.3463H253.048C251.401 33.3463 250.089 32.042 250.089 30.4551C250.089 28.8682 251.424 27.564 253.048 27.564H256.006C257.653 27.564 258.965 28.8682 258.965 30.4551C258.965 32.042 257.653 33.3463 256.006 33.3463Z" fill="white"/>
<path d="M241.236 33.3463H238.277C236.653 33.3463 235.318 32.042 235.318 30.4551C235.318 28.8682 236.653 27.564 238.277 27.564H241.236C242.86 27.564 244.195 28.8682 244.195 30.4551C244.172 32.042 242.86 33.3463 241.236 33.3463Z" fill="white"/>
<path d="M226.443 33.3463H223.484C221.838 33.3463 220.525 32.042 220.525 30.4551C220.525 28.8682 221.838 27.564 223.484 27.564H226.443C228.067 27.564 229.402 28.8682 229.402 30.4551C229.402 32.042 228.067 33.3463 226.443 33.3463Z" fill="white"/>
<path d="M160.304 27.542H157.902H157.346H154.943C153.297 27.542 151.984 28.8463 151.984 30.4331C151.984 32.02 153.297 33.3243 154.943 33.3243H157.346H157.902H160.304C161.951 33.3243 163.263 32.02 163.263 30.4331C163.285 28.8463 161.951 27.542 160.304 27.542Z" fill="white"/>
<path d="M143.13 33.3463H140.172C138.548 33.3463 137.213 32.042 137.213 30.4551C137.213 28.8682 138.525 27.564 140.172 27.564H143.13C144.754 27.564 146.089 28.8682 146.089 30.4551C146.089 32.042 144.754 33.3463 143.13 33.3463Z" fill="white"/>
<path d="M128.337 33.3463H125.379C123.732 33.3463 122.42 32.042 122.42 30.4551C122.42 28.8682 123.732 27.564 125.379 27.564H128.337C129.984 27.564 131.296 28.8682 131.296 30.4551C131.296 32.042 129.961 33.3463 128.337 33.3463Z" fill="white"/>
<path d="M113.543 33.3463H110.585C108.938 33.3463 107.626 32.042 107.626 30.4551C107.626 28.8682 108.938 27.564 110.585 27.564H113.543C115.19 27.564 116.502 28.8682 116.502 30.4551C116.502 32.042 115.19 33.3463 113.543 33.3463Z" fill="white"/>
<path d="M98.7495 33.3463H95.7908C94.1668 33.3463 92.832 32.042 92.832 30.4551C92.832 28.8682 94.1668 27.564 95.7908 27.564H98.7495C100.396 27.564 101.708 28.8682 101.708 30.4551C101.708 32.042 100.396 33.3463 98.7495 33.3463Z" fill="white"/>
<path d="M83.979 33.3463H81.0202C79.3963 33.3463 78.0615 32.042 78.0615 30.4551C78.0615 28.8682 79.374 27.564 81.0202 27.564H83.979C85.6029 27.564 86.9377 28.8682 86.9377 30.4551C86.9154 32.042 85.6029 33.3463 83.979 33.3463Z" fill="white"/>
<path d="M69.185 33.3463H66.2263C64.6023 33.3463 63.2676 32.042 63.2676 30.4551C63.2676 28.8682 64.5801 27.564 66.2263 27.564H69.185C70.809 27.564 72.1437 28.8682 72.1437 30.4551C72.1437 32.042 70.809 33.3463 69.185 33.3463Z" fill="white"/>
<path d="M54.3921 33.3463H51.4333C49.7871 33.3463 48.4746 32.042 48.4746 30.4551C48.4746 28.8682 49.7871 27.564 51.4333 27.564H54.3921C56.016 27.564 57.3508 28.8682 57.3508 30.4551C57.3508 32.042 56.016 33.3463 54.3921 33.3463Z" fill="white"/>
<path d="M39.5981 33.3463H36.6394C35.0154 33.3463 33.6807 32.042 33.6807 30.4551C33.6807 28.8682 35.0154 27.564 36.6394 27.564H39.5981C41.2221 27.564 42.5568 28.8682 42.5568 30.4551C42.5568 32.042 41.2443 33.3463 39.5981 33.3463Z" fill="white"/>
<path d="M24.8042 33.3463H21.8454C20.2215 33.3463 18.8867 32.042 18.8867 30.4551C18.8867 28.8682 20.2215 27.564 21.8454 27.564H24.8042C26.4504 27.564 27.7629 28.8682 27.7629 30.4551C27.7629 32.042 26.4504 33.3463 24.8042 33.3463Z" fill="white"/>
<path d="M578.285 178.946V216.618H189.357V166.251C188.868 166.273 188.379 166.338 187.889 166.338C187.4 166.338 186.91 166.295 186.421 166.251V219.488H581.243V178.946H578.285Z" fill="white"/>
<path d="M187.801 60.1272L157.013 30.0636L187.801 0L218.567 30.0636L187.801 60.1272ZM164.287 30.0636L187.801 53.0406L211.315 30.0636L187.801 7.08657L164.287 30.0636Z" fill="white"/>
<path d="M187.801 95.3213C165.755 95.3213 147.869 112.799 147.869 134.341C147.869 155.905 165.755 173.361 187.801 173.361C209.847 173.361 227.732 155.905 227.732 134.341C227.732 112.799 209.847 95.3213 187.801 95.3213ZM187.801 159.361C173.652 159.361 162.196 148.145 162.196 134.341C162.196 120.516 173.675 109.321 187.801 109.321C201.949 109.321 213.406 120.516 213.406 134.341C213.406 148.166 201.927 159.361 187.801 159.361Z" fill="white"/>
<path d="M602.778 171.752H557.085C548.565 171.752 541.624 164.97 541.624 156.644V111.994C541.624 103.668 548.565 96.8862 557.085 96.8862H602.778C611.299 96.8862 618.239 103.668 618.239 111.994V156.644C618.239 164.97 611.321 171.752 602.778 171.752ZM561.089 110.233C557.886 110.233 555.283 112.777 555.283 115.907V152.731C555.283 155.861 557.886 158.405 561.089 158.405H598.796C602 158.405 604.603 155.861 604.603 152.731V115.885C604.603 112.755 602 110.212 598.796 110.212H561.089V110.233Z" fill="white"/>
</svg>
